<svg width="569" height="576" viewBox="0 0 569 576" fill="none" xmlns="http://www.w3.org/2000/svg">
<g filter="url(#filter0_d_806_1211)">
<rect x="48" y="283.143" width="20" height="20" transform="rotate(-45 48 283.143)" fill="white" shape-rendering="crispEdges"/>
<rect x="44.4645" y="283.143" width="25" height="25" transform="rotate(-45 44.4645 283.143)" stroke="white" stroke-opacity="0.4" stroke-width="5" shape-rendering="crispEdges"/>
</g>
<g filter="url(#filter1_d_806_1211)">
<circle cx="62" cy="180" r="5" fill="white" shape-rendering="crispEdges"/>
<circle cx="62" cy="180" r="7.5" stroke="white" stroke-opacity="0.25" stroke-width="5" shape-rendering="crispEdges"/>
</g>
<line x1="62" y1="179" x2="61.9999" y2="284" stroke="white" stroke-width="2"/>
<path d="M280.753 556.341C280.389 555.926 279.757 555.884 279.341 556.247L272.568 562.174C272.153 562.538 272.111 563.169 272.474 563.585C272.838 564.001 273.47 564.043 273.885 563.679L279.906 558.411L285.174 564.432C285.538 564.847 286.169 564.889 286.585 564.526C287.001 564.162 287.043 563.53 286.679 563.115L280.753 556.341ZM279 572L279.998 572.067L280.998 557.067L280 557L279.002 556.933L278.002 571.933L279 572Z" fill="white"/>
<g filter="url(#filter2_d_806_1211)">
<rect x="466" y="390" width="10" height="10" fill="white" shape-rendering="crispEdges"/>
<rect x="463.5" y="387.5" width="15" height="15" stroke="white" stroke-opacity="0.4" stroke-width="5" shape-rendering="crispEdges"/>
</g>
<path d="M322.293 346.707C322.683 347.098 323.317 347.098 323.707 346.707L330.071 340.343C330.462 339.953 330.462 339.319 330.071 338.929C329.681 338.538 329.047 338.538 328.657 338.929L323 344.586L317.343 338.929C316.953 338.538 316.319 338.538 315.929 338.929C315.538 339.319 315.538 339.953 315.929 340.343L322.293 346.707ZM323 334H322V346H323H324V334H323Z" fill="white"/>
<g filter="url(#filter3_d_806_1211)">
<circle cx="432" cy="481" r="5" fill="white" shape-rendering="crispEdges"/>
<circle cx="432" cy="481" r="7.5" stroke="white" stroke-opacity="0.35" stroke-width="5" shape-rendering="crispEdges"/>
</g>
<g filter="url(#filter4_d_806_1211)">
<circle cx="279" cy="480" r="5" fill="white" shape-rendering="crispEdges"/>
<circle cx="279" cy="480" r="7.5" stroke="white" stroke-opacity="0.25" stroke-width="5" shape-rendering="crispEdges"/>
</g>
<path d="M279 479.996C279 472.664 281.593 458 291.966 458C302.339 458 304.932 472.664 304.932 479.996C304.788 487.828 307.007 503.392 317.034 502.992C327.061 502.593 329.568 487.495 329.568 479.996C329.28 472.664 331.383 458 342.102 458C352.82 458 355.212 472.664 355.068 479.996C355.212 487.662 358.007 502.992 368.034 502.992C378.061 502.992 380.568 487.662 380.568 479.996C380.568 472.664 383.075 458 393.102 458C403.129 458 405.924 472.664 406.068 479.996C405.924 487.662 408.229 502.992 418.602 502.992C428.975 502.992 431.856 487.995 432 480.496" stroke="white" stroke-width="2"/>
<g filter="url(#filter5_d_806_1211)">
<line x1="37.0038" y1="178" x2="547.054" y2="179.92" stroke="white" stroke-opacity="0.1" stroke-width="2" shape-rendering="crispEdges"/>
</g>
<g filter="url(#filter6_d_806_1211)">
<line x1="154.997" y1="112" x2="547.049" y2="111" stroke="white" stroke-opacity="0.1" stroke-width="2" shape-rendering="crispEdges"/>
</g>
<g filter="url(#filter7_d_806_1211)">
<rect x="196" y="298.853" width="120" height="120" transform="rotate(-45 196 298.853)" fill="white" fill-opacity="0.17" shape-rendering="crispEdges"/>
<rect x="194.586" y="298.853" width="122" height="122" transform="rotate(-45 194.586 298.853)" stroke="white" stroke-opacity="0.27" stroke-width="2" shape-rendering="crispEdges"/>
</g>
<line x1="279" y1="571.997" x2="279.997" y2="283.997" stroke="white" stroke-width="2"/>
<path d="M87.0174 3.00032C86.4652 2.99069 86.0098 3.43052 86.0001 3.98272L85.8431 12.9814C85.8334 13.5335 86.2733 13.989 86.8255 13.9987C87.3777 14.0083 87.8331 13.5685 87.8428 13.0163L87.9824 5.01747L95.9812 5.1571C96.5334 5.16673 96.9888 4.7269 96.9985 4.1747C97.0081 3.62249 96.5683 3.16703 96.0161 3.1574L87.0174 3.00032ZM182.472 102.864L183.191 102.17L87.7193 3.30551L87 4.00017L86.2806 4.69483L181.753 103.559L182.472 102.864Z" fill="white"/>
<path d="M548.5 107.5L190.45 107.5" stroke="white" stroke-width="2"/>
<line x1="545.998" y1="181" x2="60.9979" y2="180" stroke="white" stroke-width="2"/>
<g filter="url(#filter8_d_806_1211)">
<path d="M275 278H285V288H275V278Z" fill="white" shape-rendering="crispEdges"/>
<path d="M286 277V289H274V277H286Z" stroke="white" stroke-opacity="0.4" stroke-width="2" shape-rendering="crispEdges"/>
</g>
<g filter="url(#filter9_d_806_1211)">
<rect x="418" y="219.143" width="20" height="20" transform="rotate(-45 418 219.143)" fill="white" shape-rendering="crispEdges"/>
<rect x="414.464" y="219.143" width="25" height="25" transform="rotate(-45 414.464 219.143)" stroke="white" stroke-opacity="0.4" stroke-width="5" shape-rendering="crispEdges"/>
</g>
<path d="M281 283C316.835 283 323 283 323 334" stroke="white" stroke-width="2"/>
<line x1="433" y1="221.003" x2="432" y2="576.003" stroke="white" stroke-width="2"/>
<line x1="433" y1="221.003" x2="432" y2="576.003" stroke="white" stroke-width="2"/>
<g filter="url(#filter10_d_806_1211)">
<circle cx="182" cy="103" r="10" fill="white" shape-rendering="crispEdges"/>
<circle cx="182" cy="103" r="12.5" stroke="white" stroke-opacity="0.25" stroke-width="5" shape-rendering="crispEdges"/>
</g>
<path d="M429.5 219.5L546.5 220.5" stroke="white" stroke-width="2"/>
<g filter="url(#filter11_d_806_1211)">
<path d="M182 239L182 103" stroke="white" stroke-width="2" stroke-dasharray="8 8"/>
</g>
<line x1="175" y1="238.5" x2="190" y2="238.5" stroke="white"/>
<path d="M552 1.48795C524.93 -2.24931 471.24 13.8209 473.044 108" stroke="white" stroke-width="2"/>
<path d="M472.293 137.707C472.683 138.098 473.317 138.098 473.707 137.707L480.071 131.343C480.462 130.953 480.462 130.319 480.071 129.929C479.681 129.538 479.047 129.538 478.657 129.929L473 135.586L467.343 129.929C466.953 129.538 466.319 129.538 465.929 129.929C465.538 130.319 465.538 130.953 465.929 131.343L472.293 137.707ZM473 108H472V137H473H474V108H473Z" fill="white"/>
<line x1="552.007" y1="477.5" x2="476" y2="477.5" stroke="white" stroke-width="2"/>
<path d="M376.769 415.027C376.232 415.155 375.899 415.694 376.027 416.231L378.107 424.988C378.234 425.525 378.773 425.857 379.311 425.729C379.848 425.602 380.18 425.063 380.053 424.525L378.204 416.742L385.987 414.893C386.525 414.766 386.857 414.227 386.729 413.689C386.602 413.152 386.063 412.82 385.525 412.947L376.769 415.027ZM476 477L476.525 476.149L377.525 415.149L377 416L376.475 416.851L475.475 477.851L476 477Z" fill="white"/>
<path d="M166.5 571.5C166.5 571.5 154.3 285 61.5 283" stroke="white" stroke-width="2"/>
<defs>
<filter id="filter0_d_806_1211" x="0.728924" y="221.73" width="122.826" height="122.826" filterUnits="userSpaceOnUse" color-interpolation-filters="sRGB">
<feFlood flood-opacity="0" result="BackgroundImageFix"/>
<feColorMatrix in="SourceAlpha" type="matrix" values="0 0 0 0 0 0 0 0 0 0 0 0 0 0 0 0 0 0 127 0" result="hardAlpha"/>
<feMorphology radius="2" operator="dilate" in="SourceAlpha" result="effect1_dropShadow_806_1211"/>
<feOffset/>
<feGaussianBlur stdDeviation="19.1"/>
<feComposite in2="hardAlpha" operator="out"/>
<feColorMatrix type="matrix" values="0 0 0 0 1 0 0 0 0 1 0 0 0 0 1 0 0 0 0.48 0"/>
<feBlend mode="normal" in2="BackgroundImageFix" result="effect1_dropShadow_806_1211"/>
<feBlend mode="normal" in="SourceGraphic" in2="effect1_dropShadow_806_1211" result="shape"/>
</filter>
<filter id="filter1_d_806_1211" x="7" y="125" width="110" height="110" filterUnits="userSpaceOnUse" color-interpolation-filters="sRGB">
<feFlood flood-opacity="0" result="BackgroundImageFix"/>
<feColorMatrix in="SourceAlpha" type="matrix" values="0 0 0 0 0 0 0 0 0 0 0 0 0 0 0 0 0 0 127 0" result="hardAlpha"/>
<feMorphology radius="9" operator="dilate" in="SourceAlpha" result="effect1_dropShadow_806_1211"/>
<feOffset/>
<feGaussianBlur stdDeviation="18"/>
<feComposite in2="hardAlpha" operator="out"/>
<feColorMatrix type="matrix" values="0 0 0 0 1 0 0 0 0 1 0 0 0 0 1 0 0 0 0.4 0"/>
<feBlend mode="normal" in2="BackgroundImageFix" result="effect1_dropShadow_806_1211"/>
<feBlend mode="normal" in="SourceGraphic" in2="effect1_dropShadow_806_1211" result="shape"/>
</filter>
<filter id="filter2_d_806_1211" x="420.8" y="344.8" width="100.4" height="100.4" filterUnits="userSpaceOnUse" color-interpolation-filters="sRGB">
<feFlood flood-opacity="0" result="BackgroundImageFix"/>
<feColorMatrix in="SourceAlpha" type="matrix" values="0 0 0 0 0 0 0 0 0 0 0 0 0 0 0 0 0 0 127 0" result="hardAlpha"/>
<feMorphology radius="2" operator="dilate" in="SourceAlpha" result="effect1_dropShadow_806_1211"/>
<feOffset/>
<feGaussianBlur stdDeviation="19.1"/>
<feComposite in2="hardAlpha" operator="out"/>
<feColorMatrix type="matrix" values="0 0 0 0 1 0 0 0 0 1 0 0 0 0 1 0 0 0 0.48 0"/>
<feBlend mode="normal" in2="BackgroundImageFix" result="effect1_dropShadow_806_1211"/>
<feBlend mode="normal" in="SourceGraphic" in2="effect1_dropShadow_806_1211" result="shape"/>
</filter>
<filter id="filter3_d_806_1211" x="394.4" y="443.4" width="75.2" height="75.2" filterUnits="userSpaceOnUse" color-interpolation-filters="sRGB">
<feFlood flood-opacity="0" result="BackgroundImageFix"/>
<feColorMatrix in="SourceAlpha" type="matrix" values="0 0 0 0 0 0 0 0 0 0 0 0 0 0 0 0 0 0 127 0" result="hardAlpha"/>
<feOffset/>
<feGaussianBlur stdDeviation="13.8"/>
<feComposite in2="hardAlpha" operator="out"/>
<feColorMatrix type="matrix" values="0 0 0 0 1 0 0 0 0 1 0 0 0 0 1 0 0 0 0.95 0"/>
<feBlend mode="normal" in2="BackgroundImageFix" result="effect1_dropShadow_806_1211"/>
<feBlend mode="normal" in="SourceGraphic" in2="effect1_dropShadow_806_1211" result="shape"/>
</filter>
<filter id="filter4_d_806_1211" x="224" y="425" width="110" height="110" filterUnits="userSpaceOnUse" color-interpolation-filters="sRGB">
<feFlood flood-opacity="0" result="BackgroundImageFix"/>
<feColorMatrix in="SourceAlpha" type="matrix" values="0 0 0 0 0 0 0 0 0 0 0 0 0 0 0 0 0 0 127 0" result="hardAlpha"/>
<feMorphology radius="9" operator="dilate" in="SourceAlpha" result="effect1_dropShadow_806_1211"/>
<feOffset/>
<feGaussianBlur stdDeviation="18"/>
<feComposite in2="hardAlpha" operator="out"/>
<feColorMatrix type="matrix" values="0 0 0 0 1 0 0 0 0 1 0 0 0 0 1 0 0 0 0.4 0"/>
<feBlend mode="normal" in2="BackgroundImageFix" result="effect1_dropShadow_806_1211"/>
<feBlend mode="normal" in="SourceGraphic" in2="effect1_dropShadow_806_1211" result="shape"/>
</filter>
<filter id="filter5_d_806_1211" x="15.6" y="159.6" width="552.858" height="46.7209" filterUnits="userSpaceOnUse" color-interpolation-filters="sRGB">
<feFlood flood-opacity="0" result="BackgroundImageFix"/>
<feColorMatrix in="SourceAlpha" type="matrix" values="0 0 0 0 0 0 0 0 0 0 0 0 0 0 0 0 0 0 127 0" result="hardAlpha"/>
<feOffset dy="4"/>
<feGaussianBlur stdDeviation="10.7"/>
<feComposite in2="hardAlpha" operator="out"/>
<feColorMatrix type="matrix" values="0 0 0 0 1 0 0 0 0 1 0 0 0 0 1 0 0 0 0.25 0"/>
<feBlend mode="normal" in2="BackgroundImageFix" result="effect1_dropShadow_806_1211"/>
<feBlend mode="normal" in="SourceGraphic" in2="effect1_dropShadow_806_1211" result="shape"/>
</filter>
<filter id="filter6_d_806_1211" x="133.595" y="92.6" width="434.857" height="45.8" filterUnits="userSpaceOnUse" color-interpolation-filters="sRGB">
<feFlood flood-opacity="0" result="BackgroundImageFix"/>
<feColorMatrix in="SourceAlpha" type="matrix" values="0 0 0 0 0 0 0 0 0 0 0 0 0 0 0 0 0 0 127 0" result="hardAlpha"/>
<feOffset dy="4"/>
<feGaussianBlur stdDeviation="10.7"/>
<feComposite in2="hardAlpha" operator="out"/>
<feColorMatrix type="matrix" values="0 0 0 0 1 0 0 0 0 1 0 0 0 0 1 0 0 0 0.25 0"/>
<feBlend mode="normal" in2="BackgroundImageFix" result="effect1_dropShadow_806_1211"/>
<feBlend mode="normal" in="SourceGraphic" in2="effect1_dropShadow_806_1211" result="shape"/>
</filter>
<filter id="filter7_d_806_1211" x="163.172" y="181.171" width="235.362" height="235.363" filterUnits="userSpaceOnUse" color-interpolation-filters="sRGB">
<feFlood flood-opacity="0" result="BackgroundImageFix"/>
<feColorMatrix in="SourceAlpha" type="matrix" values="0 0 0 0 0 0 0 0 0 0 0 0 0 0 0 0 0 0 127 0" result="hardAlpha"/>
<feOffset/>
<feGaussianBlur stdDeviation="15"/>
<feComposite in2="hardAlpha" operator="out"/>
<feColorMatrix type="matrix" values="0 0 0 0 1 0 0 0 0 1 0 0 0 0 1 0 0 0 0.48 0"/>
<feBlend mode="normal" in2="BackgroundImageFix" result="effect1_dropShadow_806_1211"/>
<feBlend mode="normal" in="SourceGraphic" in2="effect1_dropShadow_806_1211" result="shape"/>
</filter>
<filter id="filter8_d_806_1211" x="234.8" y="237.8" width="90.4" height="90.4" filterUnits="userSpaceOnUse" color-interpolation-filters="sRGB">
<feFlood flood-opacity="0" result="BackgroundImageFix"/>
<feColorMatrix in="SourceAlpha" type="matrix" values="0 0 0 0 0 0 0 0 0 0 0 0 0 0 0 0 0 0 127 0" result="hardAlpha"/>
<feOffset/>
<feGaussianBlur stdDeviation="19.1"/>
<feComposite in2="hardAlpha" operator="out"/>
<feColorMatrix type="matrix" values="0 0 0 0 1 0 0 0 0 1 0 0 0 0 1 0 0 0 0.48 0"/>
<feBlend mode="normal" in2="BackgroundImageFix" result="effect1_dropShadow_806_1211"/>
<feBlend mode="normal" in="SourceGraphic" in2="effect1_dropShadow_806_1211" result="shape"/>
</filter>
<filter id="filter9_d_806_1211" x="370.729" y="157.73" width="122.826" height="122.826" filterUnits="userSpaceOnUse" color-interpolation-filters="sRGB">
<feFlood flood-opacity="0" result="BackgroundImageFix"/>
<feColorMatrix in="SourceAlpha" type="matrix" values="0 0 0 0 0 0 0 0 0 0 0 0 0 0 0 0 0 0 127 0" result="hardAlpha"/>
<feMorphology radius="2" operator="dilate" in="SourceAlpha" result="effect1_dropShadow_806_1211"/>
<feOffset/>
<feGaussianBlur stdDeviation="19.1"/>
<feComposite in2="hardAlpha" operator="out"/>
<feColorMatrix type="matrix" values="0 0 0 0 1 0 0 0 0 1 0 0 0 0 1 0 0 0 0.48 0"/>
<feBlend mode="normal" in2="BackgroundImageFix" result="effect1_dropShadow_806_1211"/>
<feBlend mode="normal" in="SourceGraphic" in2="effect1_dropShadow_806_1211" result="shape"/>
</filter>
<filter id="filter10_d_806_1211" x="137.9" y="58.9" width="88.2" height="88.2" filterUnits="userSpaceOnUse" color-interpolation-filters="sRGB">
<feFlood flood-opacity="0" result="BackgroundImageFix"/>
<feColorMatrix in="SourceAlpha" type="matrix" values="0 0 0 0 0 0 0 0 0 0 0 0 0 0 0 0 0 0 127 0" result="hardAlpha"/>
<feOffset/>
<feGaussianBlur stdDeviation="14.55"/>
<feComposite in2="hardAlpha" operator="out"/>
<feColorMatrix type="matrix" values="0 0 0 0 1 0 0 0 0 1 0 0 0 0 1 0 0 0 0.25 0"/>
<feBlend mode="normal" in2="BackgroundImageFix" result="effect1_dropShadow_806_1211"/>
<feBlend mode="normal" in="SourceGraphic" in2="effect1_dropShadow_806_1211" result="shape"/>
</filter>
<filter id="filter11_d_806_1211" x="177" y="103" width="10" height="144" filterUnits="userSpaceOnUse" color-interpolation-filters="sRGB">
<feFlood flood-opacity="0" result="BackgroundImageFix"/>
<feColorMatrix in="SourceAlpha" type="matrix" values="0 0 0 0 0 0 0 0 0 0 0 0 0 0 0 0 0 0 127 0" result="hardAlpha"/>
<feOffset dy="4"/>
<feGaussianBlur stdDeviation="2"/>
<feComposite in2="hardAlpha" operator="out"/>
<feColorMatrix type="matrix" values="0 0 0 0 0 0 0 0 0 0 0 0 0 0 0 0 0 0 0.25 0"/>
<feBlend mode="normal" in2="BackgroundImageFix" result="effect1_dropShadow_806_1211"/>
<feBlend mode="normal" in="SourceGraphic" in2="effect1_dropShadow_806_1211" result="shape"/>
</filter>
</defs>
</svg>
